<svg xmlns="http://www.w3.org/2000/svg" width="237.64000000000001" height="35" viewBox="0 0 237.64000000000001 35"><rect class="svg__rect" x="0" y="0" width="168.05" height="35" fill="#707070"/><rect class="svg__rect" x="166.05" y="0" width="71.59" height="35" fill="#E94C4A"/><path class="svg__text" d="M19.57 22L14.22 22L14.22 13.47L15.70 13.47L15.70 20.82L19.57 20.82L19.57 22ZM29.28 22L23.70 22L23.70 13.47L29.23 13.47L29.23 14.66L25.18 14.66L25.18 17.02L28.68 17.02L28.68 18.19L25.18 18.19L25.18 20.82L29.28 20.82L29.28 22ZM34.25 22L32.71 22L35.93 13.47L37.26 13.47L40.49 22L38.94 22L38.25 20.01L34.94 20.01L34.25 22ZM36.59 15.28L35.36 18.82L37.83 18.82L36.59 15.28ZM45.93 22L44.45 22L44.45 13.47L47.45 13.47Q48.92 13.47 49.73 14.13Q50.53 14.79 50.53 16.05L50.53 16.05Q50.53 16.90 50.11 17.48Q49.70 18.06 48.96 18.37L48.96 18.37L50.88 21.92L50.88 22L49.29 22L47.58 18.71L45.93 18.71L45.93 22ZM45.93 14.66L45.93 17.52L47.45 17.52Q48.20 17.52 48.62 17.15Q49.05 16.77 49.05 16.11L49.05 16.11Q49.05 15.43 48.66 15.05Q48.27 14.68 47.49 14.66L47.49 14.66L45.93 14.66ZM56.40 22L54.92 22L54.92 13.47L56.40 13.47L60.22 19.54L60.22 13.47L61.69 13.47L61.69 22L60.21 22L56.40 15.95L56.40 22ZM75.52 22L72.41 22L72.41 13.47L75.33 13.47Q76.78 13.47 77.53 14.05Q78.29 14.63 78.29 15.78L78.29 15.78Q78.29 16.36 77.97 16.83Q77.66 17.30 77.05 17.56L77.05 17.56Q77.74 17.75 78.12 18.26Q78.49 18.78 78.49 19.51L78.49 19.51Q78.49 20.71 77.72 21.36Q76.95 22 75.52 22L75.52 22ZM73.89 18.15L73.89 20.82L75.54 20.82Q76.23 20.82 76.63 20.47Q77.02 20.13 77.02 19.51L77.02 19.51Q77.02 18.18 75.66 18.15L75.66 18.15L73.89 18.15ZM73.89 14.66L73.89 17.06L75.34 17.06Q76.03 17.06 76.42 16.75Q76.81 16.43 76.81 15.86L76.81 15.86Q76.81 15.23 76.45 14.95Q76.09 14.66 75.33 14.66L75.33 14.66L73.89 14.66ZM83.74 22L82.20 22L85.43 13.47L86.76 13.47L89.98 22L88.44 22L87.74 20.01L84.44 20.01L83.74 22ZM86.09 15.28L84.85 18.82L87.32 18.82L86.09 15.28ZM93.51 19.42L93.51 19.42L94.99 19.42Q94.99 20.15 95.47 20.55Q95.95 20.95 96.85 20.95L96.85 20.95Q97.62 20.95 98.01 20.63Q98.40 20.32 98.40 19.80L98.40 19.80Q98.40 19.24 98.00 18.94Q97.61 18.63 96.58 18.32Q95.55 18.01 94.94 17.63L94.94 17.63Q93.77 16.90 93.77 15.72L93.77 15.72Q93.77 14.69 94.61 14.02Q95.45 13.35 96.79 13.35L96.79 13.35Q97.68 13.35 98.38 13.68Q99.08 14.01 99.48 14.61Q99.88 15.22 99.88 15.96L99.88 15.96L98.40 15.96Q98.40 15.29 97.98 14.91Q97.56 14.54 96.78 14.54L96.78 14.54Q96.06 14.54 95.65 14.85Q95.25 15.16 95.25 15.71L95.25 15.71Q95.25 16.18 95.69 16.50Q96.12 16.81 97.12 17.10Q98.11 17.40 98.72 17.78Q99.32 18.16 99.60 18.65Q99.88 19.13 99.88 19.79L99.88 19.79Q99.88 20.86 99.06 21.49Q98.25 22.12 96.85 22.12L96.85 22.12Q95.92 22.12 95.14 21.77Q94.37 21.43 93.94 20.83Q93.51 20.22 93.51 19.42ZM105.73 22L104.26 22L104.26 13.47L105.73 13.47L105.73 22ZM110.28 18.19L110.28 18.19L110.28 17.39Q110.28 16.19 110.70 15.27Q111.13 14.35 111.93 13.85Q112.73 13.35 113.78 13.35L113.78 13.35Q115.19 13.35 116.05 14.12Q116.91 14.89 117.06 16.29L117.06 16.29L115.58 16.29Q115.47 15.37 115.04 14.96Q114.61 14.55 113.78 14.55L113.78 14.55Q112.81 14.55 112.29 15.26Q111.78 15.96 111.76 17.33L111.76 17.33L111.76 18.09Q111.76 19.47 112.26 20.20Q112.75 20.92 113.71 20.92L113.71 20.92Q114.58 20.92 115.02 20.53Q115.46 20.14 115.58 19.22L115.58 19.22L117.06 19.22Q116.93 20.59 116.05 21.35Q115.17 22.12 113.71 22.12L113.71 22.12Q112.69 22.12 111.91 21.63Q111.14 21.15 110.72 20.26Q110.29 19.37 110.28 18.19ZM120.93 19.42L120.93 19.42L122.42 19.42Q122.42 20.15 122.90 20.55Q123.38 20.95 124.27 20.95L124.27 20.95Q125.05 20.95 125.44 20.63Q125.83 20.32 125.83 19.80L125.83 19.80Q125.83 19.24 125.43 18.94Q125.04 18.63 124.00 18.32Q122.97 18.01 122.36 17.63L122.36 17.63Q121.20 16.90 121.20 15.72L121.20 15.72Q121.20 14.69 122.04 14.02Q122.88 13.35 124.22 13.35L124.22 13.35Q125.11 13.35 125.81 13.68Q126.51 14.01 126.90 14.61Q127.30 15.22 127.30 15.96L127.30 15.96L125.83 15.96Q125.83 15.29 125.41 14.91Q124.99 14.54 124.21 14.54L124.21 14.54Q123.48 14.54 123.08 14.85Q122.68 15.16 122.68 15.71L122.68 15.71Q122.68 16.18 123.11 16.50Q123.55 16.81 124.54 17.10Q125.54 17.40 126.14 17.78Q126.75 18.16 127.03 18.65Q127.31 19.13 127.31 19.79L127.31 19.79Q127.31 20.86 126.49 21.49Q125.67 22.12 124.27 22.12L124.27 22.12Q123.35 22.12 122.57 21.77Q121.80 21.43 121.36 20.83Q120.93 20.22 120.93 19.42ZM137.31 18.00L137.31 18.00L137.31 17.52Q137.31 16.28 137.75 15.32Q138.19 14.37 139.00 13.86Q139.80 13.35 140.84 13.35Q141.89 13.35 142.69 13.85Q143.50 14.35 143.94 15.29Q144.38 16.23 144.38 17.48L144.38 17.48L144.38 17.96Q144.38 19.21 143.95 20.16Q143.52 21.10 142.71 21.61Q141.90 22.12 140.86 22.12L140.86 22.12Q139.82 22.12 139.01 21.61Q138.20 21.10 137.75 20.17Q137.31 19.23 137.31 18.00ZM138.79 17.46L138.79 17.96Q138.79 19.36 139.34 20.13Q139.88 20.90 140.86 20.90L140.86 20.90Q141.84 20.90 142.37 20.15Q142.90 19.40 142.90 17.96L142.90 17.96L142.90 17.51Q142.90 16.09 142.36 15.34Q141.83 14.58 140.84 14.58L140.84 14.58Q139.88 14.58 139.34 15.33Q138.80 16.09 138.79 17.46L138.79 17.46ZM150.33 22L148.85 22L148.85 13.47L154.27 13.47L154.27 14.66L150.33 14.66L150.33 17.20L153.76 17.20L153.76 18.38L150.33 18.38L150.33 22Z" fill="#FFFFFF"/><path class="svg__text" d="M179.16 20.93L179.16 20.93L180.45 19.40Q181.12 20.27 181.90 20.27L181.90 20.27Q181.90 20.27 181.91 20.27L181.91 20.27Q182.42 20.27 182.69 19.96Q182.96 19.65 182.96 19.05L182.96 19.05L182.96 15.44L180.06 15.44L180.06 13.60L185.32 13.60L185.32 18.91Q185.32 20.54 184.49 21.36Q183.67 22.17 182.08 22.17L182.08 22.17Q181.15 22.17 180.40 21.85Q179.64 21.53 179.16 20.93ZM191.82 22L189.40 22L193.11 13.60L195.45 13.60L199.16 22L196.70 22L196.03 20.37L192.48 20.37L191.82 22ZM194.26 15.93L193.18 18.61L195.34 18.61L194.26 15.93ZM205.90 22L202.31 13.60L204.88 13.60L207.16 19.07L209.49 13.60L211.84 13.60L208.24 22L205.90 22ZM217.41 22L214.98 22L218.69 13.60L221.04 13.60L224.75 22L222.28 22L221.62 20.37L218.07 20.37L217.41 22ZM219.85 15.93L218.76 18.61L220.93 18.61L219.85 15.93Z" fill="#FFFFFF" x="179.05"/></svg>